<svg
    xmlns:svg="http://www.w3.org/2000/svg"
    xmlns="http://www.w3.org/2000/svg"
    version="1.1"
    width="400"
    viewBox="-9 -5.6220117 472.7062134 150">
    <defs id="defs65" />
<path
    style="opacity:1;vector-effect:none;fill:#fe0000;fill-opacity:1;stroke-width:1;stroke-linecap:butt;stroke-linejoin:miter;stroke-miterlimit:4;stroke-dasharray:none;stroke-dashoffset:0;stroke-opacity:1"
    d="M 4.9,69.3 V 43.8 C 20,37.5 35.3,31.8 51,26.8 v 9.8 C 63.3,32.6 75.9,29 88.6,25.8 v -9.6 c 13.3,-3.3 26.9,-6.1 40.6,-8.4 v 9.5 c 12.4,-2.1 24.9,-3.9 37.6,-5.2 V 2.7 C 180.2,1.3 193.7,0.4 207.4,0 V 9.3 C 213.6,9.1 219.9,9 226.2,9 232.5,9 238.8,9.1 245,9.3 V 0 c 13.7,0.4 27.2,1.4 40.6,2.7 v 9.4 c 12.7,1.3 25.2,3.1 37.6,5.2 V 7.8 c 13.7,2.3 27.2,5.1 40.6,8.4 v 9.6 c 12.7,3.2 25.2,6.8 37.6,10.8 v -9.9 c 15.7,5 31.1,10.7 46.1,17 V 69.1 C 306.4,7.8 146.1,7.8 4.9,69.3 Z m 221.3,-34 C 149.9,35.2 74.5,51.3 4.9,82.5 v 39.8 H 51 v -23 c 0.2,-10.4 8.8,-18.6 19.2,-18.4 10,0.2 18.1,8.3 18.4,18.4 v 23 h 40.6 V 90.4 c 0,-10.4 8.4,-18.8 18.8,-18.8 10.4,0 18.8,8.4 18.8,18.8 v 31.9 h 40.6 V 85.5 c 0,-10.4 8.4,-18.8 18.8,-18.8 10.4,0 18.8,8.4 18.8,18.8 0,0 0,0 0,0 v 36.8 h 40.6 V 90.4 c 0.2,-10.4 8.8,-18.6 19.2,-18.4 10,0.2 18.1,8.3 18.4,18.4 v 31.9 h 40.6 v -23 c 0,-10.4 8.4,-18.8 18.8,-18.8 10.4,0 18.8,8.4 18.8,18.8 0,0 0,0 0,0 v 23 h 46.1 V 82.5 C 377.9,51.2 302.4,35.1 226.2,35.3 Z"
    class="st0"
    />
</svg>
